<svg xmlns="http://www.w3.org/2000/svg" viewBox="0 0 420 112" role="img" aria-label="Primy">
<defs>
  <linearGradient id="word" x1="114" y1="19" x2="389" y2="96" gradientUnits="userSpaceOnUse"><stop stop-color="#0D8B5B"/><stop offset="0.6" stop-color="#087147"/><stop offset="1" stop-color="#075438"/></linearGradient>
  <linearGradient id="o" x1="12" y1="10" x2="96" y2="105" gradientUnits="userSpaceOnUse"><stop stop-color="#78C998"/><stop offset="1" stop-color="#087147"/></linearGradient>
  <linearGradient id="b" x1="39" y1="67" x2="70" y2="106" gradientUnits="userSpaceOnUse"><stop stop-color="#61C78B"/><stop offset="1" stop-color="#087147"/></linearGradient>
</defs>
<g transform="translate(4 3)">
  <rect x="1" y="1" width="104" height="104" rx="28" fill="#FAFEFB" stroke="#D9EEE3" stroke-width="2"/>
  <path d="M53 4c2 7 5 10 12 12-7 2-10 5-12 12-2-7-5-10-12-12 7-2 10-5 12-12Z" fill="#FFD052"/>
  <path d="M18 34c9 2 18-2 24-9 4-5 7-7 12-8 5 1 8 3 12 8 6 7 15 11 24 9-4 6-8 10-13 13 2 6 3 12 3 18 0 19-11 32-26 32S28 84 28 65c0-6 1-12 3-18-5-3-9-7-13-13Z" fill="url(#o)"/>
  <path d="M54 34c-10-8-25-4-29 8-4 13 5 26 20 28 4 0 6-1 9-3 3 2 5 3 9 3 15-2 24-15 20-28-4-12-19-16-29-8Z" fill="#FFFEFA"/>
  <circle cx="42" cy="50" r="8" fill="#075438"/><circle cx="66" cy="50" r="8" fill="#075438"/><circle cx="45" cy="47" r="2.3" fill="#fff"/><circle cx="69" cy="47" r="2.3" fill="#fff"/>
  <path d="m54 58 7 6-7 6-7-6 7-6Z" fill="#FFD052"/>
  <circle cx="54" cy="82" r="17" fill="url(#b)" stroke="#fff" stroke-width="3"/><text x="54" y="89" text-anchor="middle" font-family="Sora,Inter,Arial,sans-serif" font-size="24" font-weight="800" fill="#fff">7</text>
</g>
<text x="127" y="78" font-family="Sora, Inter, Arial Rounded MT Bold, sans-serif" font-size="72" font-weight="800" letter-spacing="-4" fill="url(#word)">Primy</text>
<path d="M265 9c3 11 8 16 19 19-11 3-16 8-19 19-3-11-8-16-19-19 11-3 16-8 19-19Z" fill="#FFD052"/>
</svg>